<svg width="286" height="47" viewBox="0 0 286 47" fill="none" xmlns="http://www.w3.org/2000/svg">
<path d="M14.5781 7.99219L7.24219 36.0234H0L10.6641 1.89844H15.1875L14.5781 7.99219ZM20.3672 36.0234L12.9844 7.99219L12.3047 1.89844H16.8984L27.6562 36.0234H20.3672ZM20.625 23.2969V28.9922H5.22656V23.2969H20.625Z" fill="#FF5722"/>
<path d="M34.2684 16.3125V36.0234H27.7059V10.6641H33.8934L34.2684 16.3125ZM40.245 10.4766L40.1512 17.0156C39.8544 16.9531 39.495 16.9062 39.0731 16.875C38.6669 16.8438 38.3075 16.8281 37.995 16.8281C37.2606 16.8281 36.6356 16.9453 36.12 17.1797C35.6044 17.3984 35.1747 17.7344 34.8309 18.1875C34.5028 18.625 34.2528 19.1719 34.0809 19.8281C33.9091 20.4844 33.8075 21.2266 33.7762 22.0547L32.5341 21.5859C32.5341 19.9297 32.6591 18.4141 32.9091 17.0391C33.1747 15.6484 33.5653 14.4453 34.0809 13.4297C34.5966 12.3984 35.2137 11.6016 35.9325 11.0391C36.6669 10.4766 37.495 10.1953 38.4169 10.1953C38.7294 10.1953 39.0575 10.2266 39.4012 10.2891C39.7606 10.3359 40.0419 10.3984 40.245 10.4766ZM47.2791 0V36.0234H40.7166V0H47.2791ZM60.615 10.6641L51.6853 23.2734L46.3181 29.2969L43.9978 24.3047L48.1228 18.2812L52.7869 10.6641H60.615ZM53.7712 36.0234L48.24 24.375L52.7634 20.2031L61.2947 36.0234H53.7712ZM67.2038 0.0234375V36.0234H60.6413V0.0234375H67.2038ZM66.2663 22.4766L64.485 22.5234C64.485 20.7422 64.6647 19.1016 65.0241 17.6016C65.3834 16.1016 65.9147 14.7969 66.6178 13.6875C67.3366 12.5781 68.1959 11.7188 69.1959 11.1094C70.2116 10.5 71.3288 10.1953 72.5475 10.1953C73.5944 10.1953 74.5475 10.375 75.4069 10.7344C76.2663 11.0938 77.0084 11.6562 77.6334 12.4219C78.2741 13.1875 78.7663 14.2031 79.11 15.4688C79.4538 16.7188 79.6256 18.2344 79.6256 20.0156V36.0234H73.0397V19.9688C73.0397 18.875 72.9303 18.0156 72.7116 17.3906C72.4928 16.7656 72.1647 16.3281 71.7272 16.0781C71.2897 15.8125 70.7428 15.6797 70.0866 15.6797C69.3834 15.6797 68.7819 15.8516 68.2819 16.1953C67.7975 16.5391 67.4069 17.0234 67.11 17.6484C66.8131 18.2578 66.5944 18.9766 66.4538 19.8047C66.3288 20.6328 66.2663 21.5234 66.2663 22.4766ZM80.8003 24.2109V22.5C80.8003 20.5156 81.0347 18.7578 81.5034 17.2266C81.9878 15.6953 82.6753 14.4141 83.5659 13.3828C84.4566 12.3359 85.5269 11.5469 86.7769 11.0156C88.0425 10.4688 89.4566 10.1953 91.0191 10.1953C92.5972 10.1953 94.0112 10.4688 95.2612 11.0156C96.5269 11.5469 97.605 12.3359 98.4956 13.3828C99.4019 14.4141 100.097 15.6953 100.582 17.2266C101.066 18.7578 101.308 20.5156 101.308 22.5V24.2109C101.308 26.1797 101.066 27.9297 100.582 29.4609C100.097 30.9922 99.4019 32.2812 98.4956 33.3281C97.605 34.375 96.5347 35.1641 95.2847 35.6953C94.0347 36.2266 92.6284 36.4922 91.0659 36.4922C89.5034 36.4922 88.0894 36.2266 86.8237 35.6953C85.5737 35.1641 84.4956 34.375 83.5894 33.3281C82.6831 32.2812 81.9878 30.9922 81.5034 29.4609C81.0347 27.9297 80.8003 26.1797 80.8003 24.2109ZM87.3628 22.5V24.2109C87.3628 25.3828 87.4409 26.3984 87.5972 27.2578C87.7691 28.1172 88.0112 28.8281 88.3237 29.3906C88.6519 29.9531 89.0425 30.3672 89.4956 30.6328C89.9487 30.8984 90.4722 31.0312 91.0659 31.0312C91.6597 31.0312 92.1909 30.8984 92.6597 30.6328C93.1284 30.3672 93.5112 29.9531 93.8081 29.3906C94.1206 28.8281 94.3472 28.1172 94.4878 27.2578C94.6441 26.3984 94.7222 25.3828 94.7222 24.2109V22.5C94.7222 21.3594 94.6362 20.3594 94.4644 19.5C94.2925 18.625 94.0503 17.9141 93.7378 17.3672C93.4253 16.8047 93.0347 16.3828 92.5659 16.1016C92.1128 15.8047 91.5972 15.6562 91.0191 15.6562C90.4409 15.6562 89.9253 15.8047 89.4722 16.1016C89.0347 16.3828 88.6519 16.8047 88.3237 17.3672C88.0112 17.9141 87.7691 18.625 87.5972 19.5C87.4409 20.3594 87.3628 21.3594 87.3628 22.5ZM109.022 16.0781V36.0234H102.436V10.6641H108.577L109.022 16.0781ZM108.037 22.4766L106.28 22.5234C106.248 20.6172 106.428 18.9062 106.819 17.3906C107.225 15.875 107.795 14.5859 108.53 13.5234C109.28 12.4453 110.17 11.625 111.202 11.0625C112.233 10.4844 113.397 10.1953 114.694 10.1953C115.678 10.1953 116.577 10.3672 117.389 10.7109C118.217 11.0547 118.928 11.6016 119.522 12.3516C120.116 13.1016 120.577 14.0938 120.905 15.3281C121.233 16.5625 121.397 18.0859 121.397 19.8984V36.0234H114.811V19.8516C114.811 18.7578 114.702 17.9141 114.483 17.3203C114.264 16.7109 113.936 16.2891 113.498 16.0547C113.077 15.8047 112.53 15.6797 111.858 15.6797C111.233 15.6797 110.678 15.8516 110.194 16.1953C109.709 16.5391 109.303 17.0234 108.975 17.6484C108.662 18.2578 108.42 18.9766 108.248 19.8047C108.092 20.6328 108.022 21.5234 108.037 22.4766Z" fill="white"/>
<path d="M143.494 26.8594C143.587 26.1562 143.564 25.5469 143.423 25.0312C143.283 24.5156 143.041 24.0625 142.697 23.6719C142.369 23.2656 141.962 22.9062 141.478 22.5938C141.009 22.2656 140.47 21.9609 139.861 21.6797C138.752 21.1484 137.705 20.5547 136.72 19.8984C135.752 19.2266 134.892 18.4766 134.142 17.6484C133.408 16.8047 132.853 15.8516 132.478 14.7891C132.103 13.7266 131.962 12.5234 132.056 11.1797C132.166 9.64844 132.556 8.27344 133.228 7.05469C133.9 5.83594 134.775 4.80469 135.853 3.96094C136.931 3.10156 138.142 2.46094 139.486 2.03906C140.845 1.60156 142.252 1.39844 143.705 1.42969C145.767 1.47656 147.486 1.96875 148.861 2.90625C150.252 3.84375 151.283 5.10156 151.955 6.67969C152.642 8.25781 152.947 10.0234 152.869 11.9766L146.189 11.9531C146.252 11.1875 146.212 10.4297 146.072 9.67969C145.947 8.91406 145.658 8.28906 145.205 7.80469C144.752 7.30469 144.041 7.04688 143.072 7.03125C142.259 7.01562 141.541 7.19531 140.916 7.57031C140.291 7.94531 139.783 8.44531 139.392 9.07031C139.002 9.69531 138.752 10.3984 138.642 11.1797C138.564 11.7891 138.627 12.3359 138.83 12.8203C139.048 13.3047 139.345 13.7422 139.72 14.1328C140.111 14.5078 140.548 14.8516 141.033 15.1641C141.517 15.4609 142.002 15.7188 142.486 15.9375C143.673 16.5156 144.759 17.1406 145.744 17.8125C146.728 18.4688 147.564 19.2266 148.252 20.0859C148.955 20.9297 149.462 21.9062 149.775 23.0156C150.103 24.125 150.22 25.3906 150.127 26.8125C150.002 28.3906 149.619 29.7812 148.978 30.9844C148.353 32.1875 147.525 33.2109 146.494 34.0547C145.462 34.8828 144.283 35.5078 142.955 35.9297C141.642 36.3516 140.22 36.5469 138.689 36.5156C137.064 36.4688 135.611 36.1641 134.33 35.6016C133.048 35.0234 131.97 34.2266 131.095 33.2109C130.236 32.1953 129.595 31.0078 129.173 29.6484C128.752 28.2891 128.58 26.8203 128.658 25.2422L135.361 25.2656C135.314 26 135.322 26.7109 135.384 27.3984C135.462 28.0859 135.634 28.6953 135.9 29.2266C136.181 29.7422 136.587 30.1562 137.119 30.4688C137.65 30.7656 138.353 30.9141 139.228 30.9141C140.056 30.9141 140.767 30.7422 141.361 30.3984C141.955 30.0547 142.431 29.5781 142.791 28.9688C143.15 28.3594 143.384 27.6562 143.494 26.8594Z" fill="#22CAFF"/>
<path d="M157.827 32.7891L166.71 10.6641H173.718L160.64 39.8438C160.28 40.7031 159.866 41.5156 159.397 42.2812C158.929 43.0625 158.39 43.7578 157.78 44.3672C157.171 44.9766 156.468 45.4531 155.671 45.7969C154.874 46.1562 153.968 46.3359 152.952 46.3359C152.452 46.3359 151.968 46.2812 151.499 46.1719C151.03 46.0781 150.562 45.9688 150.093 45.8438L150.632 40.7109C150.757 40.7109 150.882 40.7188 151.007 40.7344C151.132 40.7656 151.257 40.7734 151.382 40.7578C152.069 40.7891 152.663 40.6953 153.163 40.4766C153.679 40.2734 154.116 39.9688 154.476 39.5625C154.835 39.1562 155.147 38.6484 155.413 38.0391L157.827 32.7891ZM160.452 10.6641L161.108 29.1797L160.71 36.2812L156.468 36.7266L153.772 10.6641H160.452ZM182.754 29.0625C182.833 28.4531 182.668 27.9375 182.262 27.5156C181.872 27.0938 181.387 26.7344 180.809 26.4375C180.247 26.1406 179.747 25.8828 179.309 25.6641C178.497 25.2578 177.715 24.8203 176.965 24.3516C176.231 23.8828 175.583 23.3516 175.02 22.7578C174.473 22.1641 174.051 21.4844 173.754 20.7188C173.458 19.9375 173.34 19.0391 173.403 18.0234C173.465 16.7891 173.762 15.6875 174.293 14.7188C174.825 13.7344 175.52 12.9062 176.379 12.2344C177.239 11.5469 178.208 11.0312 179.286 10.6875C180.379 10.3281 181.512 10.1562 182.684 10.1719C184.293 10.2031 185.708 10.5391 186.926 11.1797C188.161 11.8203 189.114 12.7344 189.786 13.9219C190.473 15.1094 190.809 16.5156 190.793 18.1406H184.395C184.411 17.6406 184.379 17.1562 184.301 16.6875C184.223 16.2031 184.036 15.8047 183.739 15.4922C183.442 15.1797 182.973 15.0391 182.333 15.0703C181.833 15.0703 181.379 15.1875 180.973 15.4219C180.583 15.6562 180.254 15.9766 179.989 16.3828C179.723 16.7734 179.543 17.2031 179.45 17.6719C179.372 18.125 179.442 18.5234 179.661 18.8672C179.879 19.1953 180.176 19.4844 180.551 19.7344C180.926 19.9844 181.317 20.2109 181.723 20.4141C182.145 20.6016 182.504 20.7578 182.801 20.8828C183.989 21.4297 185.059 22.0391 186.012 22.7109C186.965 23.3828 187.708 24.2031 188.239 25.1719C188.786 26.125 189.004 27.3203 188.895 28.7578C188.848 30.0547 188.536 31.1953 187.958 32.1797C187.379 33.1484 186.629 33.9609 185.708 34.6172C184.786 35.2578 183.754 35.7344 182.614 36.0469C181.489 36.375 180.325 36.5234 179.122 36.4922C177.497 36.4453 176.051 36.0703 174.786 35.3672C173.536 34.6641 172.559 33.7031 171.856 32.4844C171.153 31.25 170.809 29.8125 170.825 28.1719L176.918 28.1953C176.903 28.8203 176.958 29.3984 177.083 29.9297C177.208 30.4609 177.465 30.875 177.856 31.1719C178.262 31.4688 178.833 31.6172 179.567 31.6172C180.098 31.6328 180.59 31.5391 181.043 31.3359C181.497 31.1328 181.872 30.8438 182.168 30.4688C182.465 30.0938 182.661 29.625 182.754 29.0625ZM205.432 10.6641L204.541 15.6094H191.955L192.846 10.6641H205.432ZM196.807 4.40625H203.205L199.127 28.3359C199.08 28.7422 199.057 29.1406 199.057 29.5312C199.057 29.9062 199.143 30.2188 199.314 30.4688C199.502 30.7188 199.853 30.8516 200.369 30.8672C200.619 30.8672 200.869 30.8516 201.119 30.8203C201.385 30.7891 201.658 30.7422 201.939 30.6797L201.4 35.9062C200.838 36.0938 200.275 36.2344 199.713 36.3281C199.166 36.4219 198.596 36.4609 198.002 36.4453C196.549 36.4297 195.416 36.0703 194.603 35.3672C193.791 34.6641 193.228 33.75 192.916 32.625C192.619 31.5 192.541 30.2891 192.682 28.9922L196.807 4.40625ZM213.39 36.4922C211.702 36.4609 210.257 36.1328 209.054 35.5078C207.851 34.8828 206.89 34.0312 206.171 32.9531C205.452 31.8594 204.96 30.6172 204.695 29.2266C204.445 27.8359 204.39 26.3594 204.531 24.7969L204.765 22.7109C204.984 21.0703 205.367 19.5 205.913 18C206.46 16.4844 207.195 15.1328 208.117 13.9453C209.054 12.7422 210.202 11.8047 211.562 11.1328C212.921 10.4609 214.523 10.1406 216.367 10.1719C218.101 10.2188 219.507 10.6094 220.585 11.3438C221.679 12.0625 222.499 13.0156 223.046 14.2031C223.609 15.3906 223.952 16.7109 224.077 18.1641C224.218 19.6016 224.195 21.0547 224.007 22.5234L223.562 25.5234H207.038L207.859 20.9062L217.867 20.9297L217.984 20.2734C218.093 19.6172 218.132 18.9375 218.101 18.2344C218.07 17.5312 217.882 16.9297 217.538 16.4297C217.195 15.9297 216.601 15.6562 215.757 15.6094C214.835 15.5625 214.085 15.7734 213.507 16.2422C212.945 16.6953 212.507 17.2969 212.195 18.0469C211.882 18.7969 211.656 19.5859 211.515 20.4141C211.39 21.2422 211.288 22.0078 211.21 22.7109L210.952 24.8203C210.874 25.5234 210.835 26.2344 210.835 26.9531C210.851 27.6562 210.952 28.3125 211.14 28.9219C211.327 29.5312 211.656 30.0312 212.124 30.4219C212.609 30.7969 213.296 30.9922 214.187 31.0078C215.281 31.0391 216.288 30.8438 217.21 30.4219C218.148 29.9844 219.023 29.4219 219.835 28.7344L222.015 32.7422C221.374 33.6172 220.577 34.3359 219.624 34.8984C218.687 35.4609 217.671 35.8672 216.577 36.1172C215.499 36.3828 214.437 36.5078 213.39 36.4922ZM233.841 16.2656L230.419 36.0234H224.02L228.427 10.6641H234.403L233.841 16.2656ZM231.919 22.4766L230.231 22.5469C230.387 21.1875 230.661 19.7734 231.052 18.3047C231.442 16.8359 231.997 15.4844 232.716 14.25C233.45 13 234.395 12 235.552 11.25C236.708 10.4844 238.122 10.125 239.794 10.1719C240.997 10.2031 241.958 10.5 242.677 11.0625C243.395 11.625 243.934 12.3516 244.294 13.2422C244.653 14.1328 244.872 15.0938 244.95 16.125C245.028 17.1406 245.012 18.1328 244.903 19.1016L242.091 36.0234H235.716L238.387 19.875C238.45 19.3125 238.473 18.7031 238.458 18.0469C238.458 17.3906 238.317 16.8359 238.036 16.3828C237.77 15.9141 237.255 15.6562 236.489 15.6094C235.661 15.5938 234.966 15.8203 234.403 16.2891C233.856 16.7422 233.411 17.3359 233.067 18.0703C232.739 18.8047 232.481 19.5703 232.294 20.3672C232.106 21.1484 231.981 21.8516 231.919 22.4766ZM243.989 21.8203L241.856 22.1953C241.966 20.8672 242.2 19.4922 242.559 18.0703C242.934 16.6484 243.473 15.3359 244.177 14.1328C244.895 12.9297 245.809 11.9609 246.919 11.2266C248.044 10.4922 249.419 10.1406 251.044 10.1719C252.372 10.2031 253.419 10.5234 254.184 11.1328C254.966 11.7422 255.536 12.5312 255.895 13.5C256.27 14.4531 256.489 15.4844 256.552 16.5938C256.614 17.7031 256.591 18.7891 256.481 19.8516L253.786 36.0234H247.341L250.036 19.8516C250.098 19.2891 250.122 18.6875 250.106 18.0469C250.106 17.3906 249.973 16.8359 249.708 16.3828C249.442 15.9141 248.919 15.6719 248.137 15.6562C247.372 15.6406 246.739 15.8438 246.239 16.2656C245.755 16.6719 245.356 17.2031 245.044 17.8594C244.747 18.5156 244.52 19.2031 244.364 19.9219C244.208 20.625 244.083 21.2578 243.989 21.8203ZM269.291 29.0625C269.369 28.4531 269.205 27.9375 268.799 27.5156C268.408 27.0938 267.924 26.7344 267.346 26.4375C266.783 26.1406 266.283 25.8828 265.846 25.6641C265.033 25.2578 264.252 24.8203 263.502 24.3516C262.768 23.8828 262.119 23.3516 261.557 22.7578C261.01 22.1641 260.588 21.4844 260.291 20.7188C259.994 19.9375 259.877 19.0391 259.94 18.0234C260.002 16.7891 260.299 15.6875 260.83 14.7188C261.362 13.7344 262.057 12.9062 262.916 12.2344C263.776 11.5469 264.744 11.0312 265.823 10.6875C266.916 10.3281 268.049 10.1562 269.221 10.1719C270.83 10.2031 272.244 10.5391 273.463 11.1797C274.698 11.8203 275.651 12.7344 276.323 13.9219C277.01 15.1094 277.346 16.5156 277.33 18.1406H270.932C270.948 17.6406 270.916 17.1562 270.838 16.6875C270.76 16.2031 270.573 15.8047 270.276 15.4922C269.979 15.1797 269.51 15.0391 268.869 15.0703C268.369 15.0703 267.916 15.1875 267.51 15.4219C267.119 15.6562 266.791 15.9766 266.526 16.3828C266.26 16.7734 266.08 17.2031 265.987 17.6719C265.908 18.125 265.979 18.5234 266.198 18.8672C266.416 19.1953 266.713 19.4844 267.088 19.7344C267.463 19.9844 267.854 20.2109 268.26 20.4141C268.682 20.6016 269.041 20.7578 269.338 20.8828C270.526 21.4297 271.596 22.0391 272.549 22.7109C273.502 23.3828 274.244 24.2031 274.776 25.1719C275.323 26.125 275.541 27.3203 275.432 28.7578C275.385 30.0547 275.073 31.1953 274.494 32.1797C273.916 33.1484 273.166 33.9609 272.244 34.6172C271.323 35.2578 270.291 35.7344 269.151 36.0469C268.026 36.375 266.862 36.5234 265.658 36.4922C264.033 36.4453 262.588 36.0703 261.323 35.3672C260.073 34.6641 259.096 33.7031 258.393 32.4844C257.69 31.25 257.346 29.8125 257.362 28.1719L263.455 28.1953C263.44 28.8203 263.494 29.3984 263.619 29.9297C263.744 30.4609 264.002 30.875 264.393 31.1719C264.799 31.4688 265.369 31.6172 266.104 31.6172C266.635 31.6328 267.127 31.5391 267.58 31.3359C268.033 31.1328 268.408 30.8438 268.705 30.4688C269.002 30.0938 269.198 29.625 269.291 29.0625ZM277.883 32.8125C277.867 31.7344 278.218 30.8359 278.937 30.1172C279.656 29.3984 280.562 29.0312 281.656 29.0156C282.672 29 283.531 29.3281 284.234 30C284.953 30.6562 285.32 31.5 285.336 32.5312C285.351 33.6094 284.992 34.5078 284.258 35.2266C283.539 35.9297 282.648 36.2891 281.586 36.3047C280.554 36.3203 279.679 36 278.961 35.3438C278.258 34.6875 277.898 33.8438 277.883 32.8125Z" fill="#FFFFFC"/>
</svg>
