<svg width="158" height="103" viewBox="0 0 158 103" fill="none" xmlns="http://www.w3.org/2000/svg">
<path d="M14.5781 7.99219L7.24219 36.0234H0L10.6641 1.89844H15.1875L14.5781 7.99219ZM20.3672 36.0234L12.9844 7.99219L12.3047 1.89844H16.8984L27.6562 36.0234H20.3672ZM20.625 23.2969V28.9922H5.22656V23.2969H20.625Z" fill="#FF5722"/>
<path d="M34.2684 16.3125V36.0234H27.7059V10.6641H33.8934L34.2684 16.3125ZM40.245 10.4766L40.1512 17.0156C39.8544 16.9531 39.495 16.9062 39.0731 16.875C38.6669 16.8438 38.3075 16.8281 37.995 16.8281C37.2606 16.8281 36.6356 16.9453 36.12 17.1797C35.6044 17.3984 35.1747 17.7344 34.8309 18.1875C34.5028 18.625 34.2528 19.1719 34.0809 19.8281C33.9091 20.4844 33.8075 21.2266 33.7762 22.0547L32.5341 21.5859C32.5341 19.9297 32.6591 18.4141 32.9091 17.0391C33.1747 15.6484 33.5653 14.4453 34.0809 13.4297C34.5966 12.3984 35.2137 11.6016 35.9325 11.0391C36.6669 10.4766 37.495 10.1953 38.4169 10.1953C38.7294 10.1953 39.0575 10.2266 39.4012 10.2891C39.7606 10.3359 40.0419 10.3984 40.245 10.4766ZM47.2791 0V36.0234H40.7166V0H47.2791ZM60.615 10.6641L51.6853 23.2734L46.3181 29.2969L43.9978 24.3047L48.1228 18.2812L52.7869 10.6641H60.615ZM53.7712 36.0234L48.24 24.375L52.7634 20.2031L61.2947 36.0234H53.7712ZM67.2038 0.0234375V36.0234H60.6413V0.0234375H67.2038ZM66.2663 22.4766L64.485 22.5234C64.485 20.7422 64.6647 19.1016 65.0241 17.6016C65.3834 16.1016 65.9147 14.7969 66.6178 13.6875C67.3366 12.5781 68.1959 11.7188 69.1959 11.1094C70.2116 10.5 71.3288 10.1953 72.5475 10.1953C73.5944 10.1953 74.5475 10.375 75.4069 10.7344C76.2663 11.0938 77.0084 11.6562 77.6334 12.4219C78.2741 13.1875 78.7663 14.2031 79.11 15.4688C79.4538 16.7188 79.6256 18.2344 79.6256 20.0156V36.0234H73.0397V19.9688C73.0397 18.875 72.9303 18.0156 72.7116 17.3906C72.4928 16.7656 72.1647 16.3281 71.7272 16.0781C71.2897 15.8125 70.7428 15.6797 70.0866 15.6797C69.3834 15.6797 68.7819 15.8516 68.2819 16.1953C67.7975 16.5391 67.4069 17.0234 67.11 17.6484C66.8131 18.2578 66.5944 18.9766 66.4538 19.8047C66.3288 20.6328 66.2663 21.5234 66.2663 22.4766ZM80.8003 24.2109V22.5C80.8003 20.5156 81.0347 18.7578 81.5034 17.2266C81.9878 15.6953 82.6753 14.4141 83.5659 13.3828C84.4566 12.3359 85.5269 11.5469 86.7769 11.0156C88.0425 10.4688 89.4566 10.1953 91.0191 10.1953C92.5972 10.1953 94.0112 10.4688 95.2612 11.0156C96.5269 11.5469 97.605 12.3359 98.4956 13.3828C99.4019 14.4141 100.097 15.6953 100.582 17.2266C101.066 18.7578 101.308 20.5156 101.308 22.5V24.2109C101.308 26.1797 101.066 27.9297 100.582 29.4609C100.097 30.9922 99.4019 32.2812 98.4956 33.3281C97.605 34.375 96.5347 35.1641 95.2847 35.6953C94.0347 36.2266 92.6284 36.4922 91.0659 36.4922C89.5034 36.4922 88.0894 36.2266 86.8237 35.6953C85.5737 35.1641 84.4956 34.375 83.5894 33.3281C82.6831 32.2812 81.9878 30.9922 81.5034 29.4609C81.0347 27.9297 80.8003 26.1797 80.8003 24.2109ZM87.3628 22.5V24.2109C87.3628 25.3828 87.4409 26.3984 87.5972 27.2578C87.7691 28.1172 88.0112 28.8281 88.3237 29.3906C88.6519 29.9531 89.0425 30.3672 89.4956 30.6328C89.9487 30.8984 90.4722 31.0312 91.0659 31.0312C91.6597 31.0312 92.1909 30.8984 92.6597 30.6328C93.1284 30.3672 93.5112 29.9531 93.8081 29.3906C94.1206 28.8281 94.3472 28.1172 94.4878 27.2578C94.6441 26.3984 94.7222 25.3828 94.7222 24.2109V22.5C94.7222 21.3594 94.6362 20.3594 94.4644 19.5C94.2925 18.625 94.0503 17.9141 93.7378 17.3672C93.4253 16.8047 93.0347 16.3828 92.5659 16.1016C92.1128 15.8047 91.5972 15.6562 91.0191 15.6562C90.4409 15.6562 89.9253 15.8047 89.4722 16.1016C89.0347 16.3828 88.6519 16.8047 88.3237 17.3672C88.0112 17.9141 87.7691 18.625 87.5972 19.5C87.4409 20.3594 87.3628 21.3594 87.3628 22.5ZM109.022 16.0781V36.0234H102.436V10.6641H108.577L109.022 16.0781ZM108.037 22.4766L106.28 22.5234C106.248 20.6172 106.428 18.9062 106.819 17.3906C107.225 15.875 107.795 14.5859 108.53 13.5234C109.28 12.4453 110.17 11.625 111.202 11.0625C112.233 10.4844 113.397 10.1953 114.694 10.1953C115.678 10.1953 116.577 10.3672 117.389 10.7109C118.217 11.0547 118.928 11.6016 119.522 12.3516C120.116 13.1016 120.577 14.0938 120.905 15.3281C121.233 16.5625 121.397 18.0859 121.397 19.8984V36.0234H114.811V19.8516C114.811 18.7578 114.702 17.9141 114.483 17.3203C114.264 16.7109 113.936 16.2891 113.498 16.0547C113.077 15.8047 112.53 15.6797 111.858 15.6797C111.233 15.6797 110.678 15.8516 110.194 16.1953C109.709 16.5391 109.303 17.0234 108.975 17.6484C108.662 18.2578 108.42 18.9766 108.248 19.8047C108.092 20.6328 108.022 21.5234 108.037 22.4766Z" fill="white"/>
<path d="M15.3281 82.8594C15.4219 82.1562 15.3984 81.5469 15.2578 81.0312C15.1172 80.5156 14.875 80.0625 14.5312 79.6719C14.2031 79.2656 13.7969 78.9062 13.3125 78.5938C12.8438 78.2656 12.3047 77.9609 11.6953 77.6797C10.5859 77.1484 9.53906 76.5547 8.55469 75.8984C7.58594 75.2266 6.72656 74.4766 5.97656 73.6484C5.24219 72.8047 4.6875 71.8516 4.3125 70.7891C3.9375 69.7266 3.79688 68.5234 3.89062 67.1797C4 65.6484 4.39062 64.2734 5.0625 63.0547C5.73438 61.8359 6.60938 60.8047 7.6875 59.9609C8.76562 59.1016 9.97656 58.4609 11.3203 58.0391C12.6797 57.6016 14.0859 57.3984 15.5391 57.4297C17.6016 57.4766 19.3203 57.9688 20.6953 58.9062C22.0859 59.8438 23.1172 61.1016 23.7891 62.6797C24.4766 64.2578 24.7812 66.0234 24.7031 67.9766L18.0234 67.9531C18.0859 67.1875 18.0469 66.4297 17.9062 65.6797C17.7812 64.9141 17.4922 64.2891 17.0391 63.8047C16.5859 63.3047 15.875 63.0469 14.9062 63.0312C14.0938 63.0156 13.375 63.1953 12.75 63.5703C12.125 63.9453 11.6172 64.4453 11.2266 65.0703C10.8359 65.6953 10.5859 66.3984 10.4766 67.1797C10.3984 67.7891 10.4609 68.3359 10.6641 68.8203C10.8828 69.3047 11.1797 69.7422 11.5547 70.1328C11.9453 70.5078 12.3828 70.8516 12.8672 71.1641C13.3516 71.4609 13.8359 71.7188 14.3203 71.9375C15.5078 72.5156 16.5938 73.1406 17.5781 73.8125C18.5625 74.4688 19.3984 75.2266 20.0859 76.0859C20.7891 76.9297 21.2969 77.9062 21.6094 79.0156C21.9375 80.125 22.0547 81.3906 21.9609 82.8125C21.8359 84.3906 21.4531 85.7812 20.8125 86.9844C20.1875 88.1875 19.3594 89.2109 18.3281 90.0547C17.2969 90.8828 16.1172 91.5078 14.7891 91.9297C13.4766 92.3516 12.0547 92.5469 10.5234 92.5156C8.89844 92.4688 7.44531 92.1641 6.16406 91.6016C4.88281 91.0234 3.80469 90.2266 2.92969 89.2109C2.07031 88.1953 1.42969 87.0078 1.00781 85.6484C0.585938 84.2891 0.414062 82.8203 0.492188 81.2422L7.19531 81.2656C7.14844 82 7.15625 82.7109 7.21875 83.3984C7.29688 84.0859 7.46875 84.6953 7.73438 85.2266C8.01562 85.7422 8.42188 86.1562 8.95312 86.4688C9.48438 86.7656 10.1875 86.9141 11.0625 86.9141C11.8906 86.9141 12.6016 86.7422 13.1953 86.3984C13.7891 86.0547 14.2656 85.5781 14.625 84.9688C14.9844 84.3594 15.2188 83.6562 15.3281 82.8594Z" fill="#22CAFF"/>
<path d="M29.6616 88.7891L38.5444 66.6641H45.5522L32.4741 95.8438C32.1147 96.7031 31.7006 97.5156 31.2319 98.2812C30.7631 99.0625 30.2241 99.7578 29.6147 100.367C29.0053 100.977 28.3022 101.453 27.5053 101.797C26.7084 102.156 25.8022 102.336 24.7866 102.336C24.2866 102.336 23.8022 102.281 23.3334 102.172C22.8647 102.078 22.3959 101.969 21.9272 101.844L22.4662 96.7109C22.5912 96.7109 22.7162 96.7188 22.8412 96.7344C22.9662 96.7656 23.0912 96.7734 23.2162 96.7578C23.9037 96.7891 24.4975 96.6953 24.9975 96.4766C25.5131 96.2734 25.9506 95.9688 26.31 95.5625C26.6694 95.1562 26.9819 94.6484 27.2475 94.0391L29.6616 88.7891ZM32.2866 66.6641L32.9428 85.1797L32.5444 92.2812L28.3022 92.7266L25.6069 66.6641H32.2866ZM54.5887 85.0625C54.6669 84.4531 54.5028 83.9375 54.0966 83.5156C53.7059 83.0938 53.2216 82.7344 52.6434 82.4375C52.0809 82.1406 51.5809 81.8828 51.1434 81.6641C50.3309 81.2578 49.5497 80.8203 48.7997 80.3516C48.0653 79.8828 47.4169 79.3516 46.8544 78.7578C46.3075 78.1641 45.8856 77.4844 45.5887 76.7188C45.2919 75.9375 45.1747 75.0391 45.2372 74.0234C45.2997 72.7891 45.5966 71.6875 46.1278 70.7188C46.6591 69.7344 47.3544 68.9062 48.2137 68.2344C49.0731 67.5469 50.0419 67.0312 51.12 66.6875C52.2137 66.3281 53.3466 66.1562 54.5184 66.1719C56.1278 66.2031 57.5419 66.5391 58.7606 67.1797C59.995 67.8203 60.9481 68.7344 61.62 69.9219C62.3075 71.1094 62.6434 72.5156 62.6278 74.1406H56.2294C56.245 73.6406 56.2137 73.1562 56.1356 72.6875C56.0575 72.2031 55.87 71.8047 55.5731 71.4922C55.2762 71.1797 54.8075 71.0391 54.1669 71.0703C53.6669 71.0703 53.2137 71.1875 52.8075 71.4219C52.4169 71.6562 52.0887 71.9766 51.8231 72.3828C51.5575 72.7734 51.3778 73.2031 51.2841 73.6719C51.2059 74.125 51.2762 74.5234 51.495 74.8672C51.7137 75.1953 52.0106 75.4844 52.3856 75.7344C52.7606 75.9844 53.1512 76.2109 53.5575 76.4141C53.9794 76.6016 54.3387 76.7578 54.6356 76.8828C55.8231 77.4297 56.8934 78.0391 57.8466 78.7109C58.7997 79.3828 59.5419 80.2031 60.0731 81.1719C60.62 82.125 60.8387 83.3203 60.7294 84.7578C60.6825 86.0547 60.37 87.1953 59.7919 88.1797C59.2137 89.1484 58.4637 89.9609 57.5419 90.6172C56.62 91.2578 55.5887 91.7344 54.4481 92.0469C53.3231 92.375 52.1591 92.5234 50.9559 92.4922C49.3309 92.4453 47.8856 92.0703 46.62 91.3672C45.37 90.6641 44.3934 89.7031 43.6903 88.4844C42.9872 87.25 42.6434 85.8125 42.6591 84.1719L48.7528 84.1953C48.7372 84.8203 48.7919 85.3984 48.9169 85.9297C49.0419 86.4609 49.2997 86.875 49.6903 87.1719C50.0966 87.4688 50.6669 87.6172 51.4012 87.6172C51.9325 87.6328 52.4247 87.5391 52.8778 87.3359C53.3309 87.1328 53.7059 86.8438 54.0028 86.4688C54.2997 86.0938 54.495 85.625 54.5887 85.0625ZM77.2659 66.6641L76.3753 71.6094H63.7894L64.68 66.6641H77.2659ZM68.6409 60.4062H75.0394L70.9613 84.3359C70.9144 84.7422 70.8909 85.1406 70.8909 85.5312C70.8909 85.9062 70.9769 86.2188 71.1488 86.4688C71.3363 86.7188 71.6878 86.8516 72.2034 86.8672C72.4534 86.8672 72.7034 86.8516 72.9534 86.8203C73.2191 86.7891 73.4925 86.7422 73.7738 86.6797L73.2347 91.9062C72.6722 92.0938 72.1097 92.2344 71.5472 92.3281C71.0003 92.4219 70.43 92.4609 69.8363 92.4453C68.3831 92.4297 67.2503 92.0703 66.4378 91.3672C65.6253 90.6641 65.0628 89.75 64.7503 88.625C64.4534 87.5 64.3753 86.2891 64.5159 84.9922L68.6409 60.4062ZM85.2244 92.4922C83.5369 92.4609 82.0916 92.1328 80.8884 91.5078C79.6853 90.8828 78.7244 90.0312 78.0056 88.9531C77.2869 87.8594 76.7947 86.6172 76.5291 85.2266C76.2791 83.8359 76.2244 82.3594 76.365 80.7969L76.5994 78.7109C76.8181 77.0703 77.2009 75.5 77.7478 74C78.2947 72.4844 79.0291 71.1328 79.9509 69.9453C80.8884 68.7422 82.0369 67.8047 83.3962 67.1328C84.7556 66.4609 86.3572 66.1406 88.2009 66.1719C89.9353 66.2188 91.3416 66.6094 92.4197 67.3438C93.5134 68.0625 94.3337 69.0156 94.8806 70.2031C95.4431 71.3906 95.7869 72.7109 95.9119 74.1641C96.0525 75.6016 96.0291 77.0547 95.8416 78.5234L95.3962 81.5234H78.8728L79.6931 76.9062L89.7009 76.9297L89.8181 76.2734C89.9275 75.6172 89.9666 74.9375 89.9353 74.2344C89.9041 73.5312 89.7166 72.9297 89.3728 72.4297C89.0291 71.9297 88.4353 71.6562 87.5916 71.6094C86.6697 71.5625 85.9197 71.7734 85.3416 72.2422C84.7791 72.6953 84.3416 73.2969 84.0291 74.0469C83.7166 74.7969 83.49 75.5859 83.3494 76.4141C83.2244 77.2422 83.1228 78.0078 83.0447 78.7109L82.7869 80.8203C82.7087 81.5234 82.6697 82.2344 82.6697 82.9531C82.6853 83.6562 82.7869 84.3125 82.9744 84.9219C83.1619 85.5312 83.49 86.0312 83.9587 86.4219C84.4431 86.7969 85.1306 86.9922 86.0212 87.0078C87.115 87.0391 88.1228 86.8438 89.0447 86.4219C89.9822 85.9844 90.8572 85.4219 91.6697 84.7344L93.8494 88.7422C93.2087 89.6172 92.4119 90.3359 91.4587 90.8984C90.5212 91.4609 89.5056 91.8672 88.4119 92.1172C87.3337 92.3828 86.2712 92.5078 85.2244 92.4922ZM105.675 72.2656L102.253 92.0234H95.8547L100.261 66.6641H106.238L105.675 72.2656ZM103.753 78.4766L102.066 78.5469C102.222 77.1875 102.495 75.7734 102.886 74.3047C103.277 72.8359 103.831 71.4844 104.55 70.25C105.284 69 106.23 68 107.386 67.25C108.542 66.4844 109.956 66.125 111.628 66.1719C112.831 66.2031 113.792 66.5 114.511 67.0625C115.23 67.625 115.769 68.3516 116.128 69.2422C116.488 70.1328 116.706 71.0938 116.784 72.125C116.863 73.1406 116.847 74.1328 116.738 75.1016L113.925 92.0234H107.55L110.222 75.875C110.284 75.3125 110.308 74.7031 110.292 74.0469C110.292 73.3906 110.152 72.8359 109.87 72.3828C109.605 71.9141 109.089 71.6562 108.323 71.6094C107.495 71.5938 106.8 71.8203 106.238 72.2891C105.691 72.7422 105.245 73.3359 104.902 74.0703C104.573 74.8047 104.316 75.5703 104.128 76.3672C103.941 77.1484 103.816 77.8516 103.753 78.4766ZM115.823 77.8203L113.691 78.1953C113.8 76.8672 114.034 75.4922 114.394 74.0703C114.769 72.6484 115.308 71.3359 116.011 70.1328C116.73 68.9297 117.644 67.9609 118.753 67.2266C119.878 66.4922 121.253 66.1406 122.878 66.1719C124.206 66.2031 125.253 66.5234 126.019 67.1328C126.8 67.7422 127.37 68.5312 127.73 69.5C128.105 70.4531 128.323 71.4844 128.386 72.5938C128.448 73.7031 128.425 74.7891 128.316 75.8516L125.62 92.0234H119.175L121.87 75.8516C121.933 75.2891 121.956 74.6875 121.941 74.0469C121.941 73.3906 121.808 72.8359 121.542 72.3828C121.277 71.9141 120.753 71.6719 119.972 71.6562C119.206 71.6406 118.573 71.8438 118.073 72.2656C117.589 72.6719 117.191 73.2031 116.878 73.8594C116.581 74.5156 116.355 75.2031 116.198 75.9219C116.042 76.625 115.917 77.2578 115.823 77.8203ZM141.126 85.0625C141.204 84.4531 141.04 83.9375 140.633 83.5156C140.243 83.0938 139.758 82.7344 139.18 82.4375C138.618 82.1406 138.118 81.8828 137.68 81.6641C136.868 81.2578 136.087 80.8203 135.337 80.3516C134.602 79.8828 133.954 79.3516 133.391 78.7578C132.844 78.1641 132.423 77.4844 132.126 76.7188C131.829 75.9375 131.712 75.0391 131.774 74.0234C131.837 72.7891 132.133 71.6875 132.665 70.7188C133.196 69.7344 133.891 68.9062 134.751 68.2344C135.61 67.5469 136.579 67.0312 137.657 66.6875C138.751 66.3281 139.883 66.1562 141.055 66.1719C142.665 66.2031 144.079 66.5391 145.298 67.1797C146.532 67.8203 147.485 68.7344 148.157 69.9219C148.844 71.1094 149.18 72.5156 149.165 74.1406H142.766C142.782 73.6406 142.751 73.1562 142.673 72.6875C142.594 72.2031 142.407 71.8047 142.11 71.4922C141.813 71.1797 141.344 71.0391 140.704 71.0703C140.204 71.0703 139.751 71.1875 139.344 71.4219C138.954 71.6562 138.626 71.9766 138.36 72.3828C138.094 72.7734 137.915 73.2031 137.821 73.6719C137.743 74.125 137.813 74.5234 138.032 74.8672C138.251 75.1953 138.548 75.4844 138.923 75.7344C139.298 75.9844 139.688 76.2109 140.094 76.4141C140.516 76.6016 140.876 76.7578 141.173 76.8828C142.36 77.4297 143.43 78.0391 144.383 78.7109C145.337 79.3828 146.079 80.2031 146.61 81.1719C147.157 82.125 147.376 83.3203 147.266 84.7578C147.219 86.0547 146.907 87.1953 146.329 88.1797C145.751 89.1484 145.001 89.9609 144.079 90.6172C143.157 91.2578 142.126 91.7344 140.985 92.0469C139.86 92.375 138.696 92.5234 137.493 92.4922C135.868 92.4453 134.423 92.0703 133.157 91.3672C131.907 90.6641 130.93 89.7031 130.227 88.4844C129.524 87.25 129.18 85.8125 129.196 84.1719L135.29 84.1953C135.274 84.8203 135.329 85.3984 135.454 85.9297C135.579 86.4609 135.837 86.875 136.227 87.1719C136.633 87.4688 137.204 87.6172 137.938 87.6172C138.469 87.6328 138.962 87.5391 139.415 87.3359C139.868 87.1328 140.243 86.8438 140.54 86.4688C140.837 86.0938 141.032 85.625 141.126 85.0625ZM149.717 88.8125C149.701 87.7344 150.053 86.8359 150.772 86.1172C151.49 85.3984 152.397 85.0312 153.49 85.0156C154.506 85 155.365 85.3281 156.068 86C156.787 86.6562 157.154 87.5 157.17 88.5312C157.186 89.6094 156.826 90.5078 156.092 91.2266C155.373 91.9297 154.482 92.2891 153.42 92.3047C152.389 92.3203 151.514 92 150.795 91.3438C150.092 90.6875 149.732 89.8438 149.717 88.8125Z" fill="#FFFFFC"/>
</svg>
