<svg width="128" height="128" viewBox="0 0 128 128" fill="none" xmlns="http://www.w3.org/2000/svg">
<rect width="128" height="128" fill="#030303"/>
<path d="M38.4688 47.625L28.6875 85H19.0312L33.25 39.5H39.2812L38.4688 47.625ZM46.1875 85L36.3438 47.625L35.4375 39.5H41.5625L55.9062 85H46.1875ZM46.5312 68.0312V75.625H26V68.0312H46.5312Z" fill="#FF5722"/>
<path d="M77.7188 72.7812C77.8438 71.8438 77.8125 71.0312 77.625 70.3438C77.4375 69.6562 77.1146 69.0521 76.6562 68.5312C76.2188 67.9896 75.6771 67.5104 75.0312 67.0938C74.4062 66.6562 73.6875 66.25 72.875 65.875C71.3958 65.1667 70 64.375 68.6875 63.5C67.3958 62.6042 66.25 61.6042 65.25 60.5C64.2708 59.375 63.5312 58.1042 63.0312 56.6875C62.5312 55.2708 62.3438 53.6667 62.4688 51.875C62.6146 49.8333 63.1354 48 64.0312 46.375C64.9271 44.75 66.0938 43.375 67.5312 42.25C68.9688 41.1042 70.5833 40.25 72.375 39.6875C74.1875 39.1042 76.0625 38.8333 78 38.875C80.75 38.9375 83.0417 39.5938 84.875 40.8438C86.7292 42.0938 88.1042 43.7708 89 45.875C89.9167 47.9792 90.3229 50.3333 90.2188 52.9375L81.3125 52.9062C81.3958 51.8854 81.3438 50.875 81.1562 49.875C80.9896 48.8542 80.6042 48.0208 80 47.375C79.3958 46.7083 78.4479 46.3646 77.1562 46.3438C76.0729 46.3229 75.1146 46.5625 74.2812 47.0625C73.4479 47.5625 72.7708 48.2292 72.25 49.0625C71.7292 49.8958 71.3958 50.8333 71.25 51.875C71.1458 52.6875 71.2292 53.4167 71.5 54.0625C71.7917 54.7083 72.1875 55.2917 72.6875 55.8125C73.2083 56.3125 73.7917 56.7708 74.4375 57.1875C75.0833 57.5833 75.7292 57.9271 76.375 58.2188C77.9583 58.9896 79.4062 59.8229 80.7188 60.7188C82.0312 61.5938 83.1458 62.6042 84.0625 63.75C85 64.875 85.6771 66.1771 86.0938 67.6562C86.5312 69.1354 86.6875 70.8229 86.5625 72.7188C86.3958 74.8229 85.8854 76.6771 85.0312 78.2812C84.1979 79.8854 83.0938 81.25 81.7188 82.375C80.3438 83.4792 78.7708 84.3125 77 84.875C75.25 85.4375 73.3542 85.6979 71.3125 85.6562C69.1458 85.5938 67.2083 85.1875 65.5 84.4375C63.7917 83.6667 62.3542 82.6042 61.1875 81.25C60.0417 79.8958 59.1875 78.3125 58.625 76.5C58.0625 74.6875 57.8333 72.7292 57.9375 70.625L66.875 70.6562C66.8125 71.6354 66.8229 72.5833 66.9062 73.5C67.0104 74.4167 67.2396 75.2292 67.5938 75.9375C67.9688 76.625 68.5104 77.1771 69.2188 77.5938C69.9271 77.9896 70.8646 78.1875 72.0312 78.1875C73.1354 78.1875 74.0833 77.9583 74.875 77.5C75.6667 77.0417 76.3021 76.4062 76.7812 75.5938C77.2604 74.7812 77.5729 73.8438 77.7188 72.7812Z" fill="#22CAFF"/>
<path d="M94.0312 80.5312C94.0312 79.1562 94.4896 78.0104 95.4062 77.0938C96.3229 76.1562 97.5625 75.6875 99.125 75.6875C100.688 75.6875 101.927 76.1562 102.844 77.0938C103.76 78.0104 104.219 79.1562 104.219 80.5312C104.219 81.9062 103.76 83.0521 102.844 83.9688C101.927 84.8854 100.688 85.3438 99.125 85.3438C97.5625 85.3438 96.3229 84.8854 95.4062 83.9688C94.4896 83.0521 94.0312 81.9062 94.0312 80.5312Z" fill="#FFFFFC"/>
</svg>
